<svg width="24" height="24" viewBox="0 0 24 24" fill="none" xmlns="http://www.w3.org/2000/svg">
<path d="M4.88754 11.25L16.6818 11.25L16.6818 12.75L4.88754 12.75L6.70679 14.5693L5.65304 15.6538L1.99929 12L5.65304 8.34625L6.70679 9.43075L4.88754 11.25ZM10.0568 15.1348L10.0568 18.6923C10.0568 18.7821 10.0856 18.8558 10.1433 18.9135C10.2011 18.9712 10.2749 19 10.3645 19L19.951 19C20.0409 19 20.1146 18.9712 20.1723 18.9135C20.23 18.8558 20.2588 18.7821 20.2588 18.6923L20.2588 5.30775C20.2588 5.21792 20.23 5.14417 20.1723 5.0865C20.1146 5.02883 20.0409 5 19.951 5L10.3645 5C10.2749 5 10.2011 5.02883 10.1433 5.0865C10.0856 5.14417 10.0568 5.21792 10.0568 5.30775L10.0568 8.86525L8.55679 8.86525L8.55679 5.30775C8.55679 4.80908 8.73345 4.38308 9.08679 4.02975C9.43995 3.67658 9.86587 3.5 10.3645 3.5L19.951 3.5C20.4497 3.5 20.8757 3.67658 21.229 4.02975C21.5822 4.38308 21.7588 4.80908 21.7588 5.30775L21.7588 18.6923C21.7588 19.1909 21.5822 19.6169 21.229 19.9702C20.8757 20.3234 20.4497 20.5 19.951 20.5L10.3645 20.5C9.86587 20.5 9.43996 20.3234 9.08679 19.9703C8.73346 19.6169 8.55679 19.1909 8.55679 18.6923L8.55679 15.1348L10.0568 15.1348Z" fill="#4A4C50"/>
</svg>
