<svg width="24" height="24" viewBox="0 0 24 24" fill="none" xmlns="http://www.w3.org/2000/svg">
<path d="M1.79785 19.3076V17.0844C1.79785 16.5691 1.93085 16.1091 2.19685 15.7046C2.46285 15.3001 2.8181 14.9855 3.2626 14.7606C4.21294 14.2958 5.16852 13.9374 6.12935 13.6854C7.09035 13.4336 8.14644 13.3076 9.2976 13.3076C10.4489 13.3076 11.505 13.4336 12.4659 13.6854C13.4269 13.9374 14.3825 14.2958 15.3329 14.7606C15.7774 14.9855 16.1326 15.3001 16.3986 15.7046C16.6646 16.1091 16.7976 16.5691 16.7976 17.0844V19.3076H1.79785ZM18.7976 19.3076V16.9614C18.7976 16.3051 18.6369 15.6795 18.3156 15.0846C17.9941 14.49 17.5381 13.9797 16.9476 13.5539C17.6181 13.6539 18.2547 13.8086 18.8574 14.0181C19.4599 14.2278 20.0349 14.4756 20.5824 14.7614C21.099 15.0371 21.498 15.362 21.7794 15.7361C22.0607 16.1101 22.2014 16.5186 22.2014 16.9614V19.3076H18.7976ZM9.2976 11.6921C8.3351 11.6921 7.51119 11.3495 6.82585 10.6641C6.14052 9.97864 5.79785 9.15464 5.79785 8.19214C5.79785 7.22964 6.14052 6.40572 6.82585 5.72039C7.51119 5.03489 8.3351 4.69214 9.2976 4.69214C10.2601 4.69214 11.0841 5.03489 11.7696 5.72039C12.4549 6.40572 12.7976 7.22964 12.7976 8.19214C12.7976 9.15464 12.4549 9.97864 11.7696 10.6641C11.0841 11.3495 10.2601 11.6921 9.2976 11.6921ZM17.9321 8.19214C17.9321 9.15464 17.5894 9.97864 16.9041 10.6641C16.2188 11.3495 15.3949 11.6921 14.4324 11.6921C14.3195 11.6921 14.1759 11.6793 14.0016 11.6536C13.8271 11.628 13.6835 11.5998 13.5709 11.5691C13.9652 11.095 14.2683 10.569 14.4801 9.99114C14.6918 9.41331 14.7976 8.81331 14.7976 8.19114C14.7976 7.56881 14.6896 6.97105 14.4736 6.39789C14.2576 5.82489 13.9567 5.29739 13.5709 4.81539C13.7144 4.76406 13.8579 4.73072 14.0016 4.71539C14.1451 4.69989 14.2887 4.69214 14.4324 4.69214C15.3949 4.69214 16.2188 5.03489 16.9041 5.72039C17.5894 6.40572 17.9321 7.22964 17.9321 8.19214ZM3.2976 17.8076H15.2976V17.0844C15.2976 16.8756 15.2454 16.6897 15.1409 16.5269C15.0365 16.3641 14.8709 16.2217 14.6439 16.0999C13.8209 15.6756 12.9734 15.3541 12.1016 15.1354C11.2298 14.9169 10.2951 14.8076 9.2976 14.8076C8.30027 14.8076 7.36569 14.9169 6.49385 15.1354C5.62202 15.3541 4.7746 15.6756 3.9516 16.0999C3.7246 16.2217 3.55885 16.3641 3.45435 16.5269C3.34985 16.6897 3.2976 16.8756 3.2976 17.0844V17.8076ZM9.2976 10.1921C9.8476 10.1921 10.3184 9.9963 10.7101 9.60464C11.1018 9.21297 11.2976 8.74214 11.2976 8.19214C11.2976 7.64214 11.1018 7.17131 10.7101 6.77964C10.3184 6.38797 9.8476 6.19214 9.2976 6.19214C8.7476 6.19214 8.27677 6.38797 7.8851 6.77964C7.49344 7.17131 7.2976 7.64214 7.2976 8.19214C7.2976 8.74214 7.49344 9.21297 7.8851 9.60464C8.27677 9.9963 8.7476 10.1921 9.2976 10.1921Z" fill="#333539"/>
</svg>
