<svg width="16" height="16" viewBox="0 0 16 16" fill="none" xmlns="http://www.w3.org/2000/svg">
<path d="M10.3157 11.0181L11.0183 10.3154L8.50033 7.79741V4.66675H7.50033V8.20258L10.3157 11.0181ZM8.00149 14.3334C7.12549 14.3334 6.3021 14.1672 5.53133 13.8347C4.76055 13.5023 4.0901 13.0511 3.51999 12.4812C2.94988 11.9114 2.49849 11.2412 2.16583 10.4707C1.83327 9.7003 1.66699 8.87714 1.66699 8.00125C1.66699 7.12525 1.83321 6.30186 2.16566 5.53108C2.4981 4.7603 2.94927 4.08986 3.51916 3.51975C4.08905 2.94964 4.75921 2.49825 5.52966 2.16558C6.3001 1.83303 7.12327 1.66675 7.99916 1.66675C8.87516 1.66675 9.69855 1.83297 10.4693 2.16541C11.2401 2.49786 11.9105 2.94903 12.4807 3.51891C13.0508 4.0888 13.5022 4.75897 13.8348 5.52941C14.1674 6.29986 14.3337 7.12303 14.3337 7.99891C14.3337 8.87491 14.1674 9.6983 13.835 10.4691C13.5025 11.2399 13.0514 11.9103 12.4815 12.4804C11.9116 13.0505 11.2414 13.5019 10.471 13.8346C9.70055 14.1671 8.87738 14.3334 8.00149 14.3334ZM8.00033 13.3334C9.4781 13.3334 10.7364 12.814 11.7753 11.7751C12.8142 10.7362 13.3337 9.47786 13.3337 8.00008C13.3337 6.5223 12.8142 5.26397 11.7753 4.22508C10.7364 3.18619 9.4781 2.66675 8.00033 2.66675C6.52255 2.66675 5.26421 3.18619 4.22533 4.22508C3.18644 5.26397 2.66699 6.5223 2.66699 8.00008C2.66699 9.47786 3.18644 10.7362 4.22533 11.7751C5.26421 12.814 6.52255 13.3334 8.00033 13.3334Z" fill="#77797C"/>
</svg>
